# xmcd
#
# Track frame offsets: 
#        182
#        19275
#        36522
#        49637
#        74850
#        95410
#        115530
#        137920
#        166210
#        182547
#        195840
#        216867
#
# Disc length: 3162 seconds
#
# Revision: 2
# Processed by: cddbd v1.5.2PL0 Copyright (c) Steve Scherf et al.
# Submitted via: ExactAudioCopyFreeDBPlugin 1.0
#
DISCID=a80c580c
DTITLE=Steve Johnson - Blues In The Morning
DYEAR=1997
DGENRE=Blues
TTITLE0=Happy Song
TTITLE1=Leaving New York
TTITLE2=Hide and Seek
TTITLE3=Blues In The Morning
TTITLE4=Walk With Me
TTITLE5=Gone For Good
TTITLE6=Bbq
TTITLE7=Shame And A Sin
TTITLE8=Seven Night To Rock
TTITLE9=Got The Blues
TTITLE10=Rattlesnake Shake
TTITLE11=Sex Machine
EXTD=
EXTT0=
EXTT1=
EXTT2=
EXTT3=
EXTT4=
EXTT5=
EXTT6=
EXTT7=
EXTT8=
EXTT9=
EXTT10=
EXTT11=
PLAYORDER=
